<mxfile host="app.diagrams.net" modified="2024-05-10T13:58:20.847Z" agent="Mozilla/5.0 (Windows NT 10.0; Win64; x64) AppleWebKit/537.36 (KHTML, like Gecko) Chrome/124.0.0.0 Safari/537.36" etag="1KuVsLkNgxhU6PpxnEpx" version="24.2.8" type="github">
  <diagram name="第 1 页" id="FDUFWRiaUCsmnH0Chkqv">
    <mxGraphModel dx="1087" dy="403" grid="1" gridSize="10" guides="1" tooltips="1" connect="1" arrows="1" fold="1" page="1" pageScale="1" pageWidth="827" pageHeight="1169" math="0" shadow="0">
      <root>
        <mxCell id="0" />
        <mxCell id="1" parent="0" />
        <mxCell id="mfmeViAMqzJZdrt2rNjp-1" value="" style="triangle;whiteSpace=wrap;html=1;" vertex="1" parent="1">
          <mxGeometry x="200" y="120" width="40" height="40" as="geometry" />
        </mxCell>
        <mxCell id="mfmeViAMqzJZdrt2rNjp-2" value="" style="triangle;whiteSpace=wrap;html=1;" vertex="1" parent="1">
          <mxGeometry x="280" y="120" width="40" height="40" as="geometry" />
        </mxCell>
        <mxCell id="mfmeViAMqzJZdrt2rNjp-3" value="" style="triangle;whiteSpace=wrap;html=1;" vertex="1" parent="1">
          <mxGeometry x="400" y="120" width="40" height="40" as="geometry" />
        </mxCell>
        <mxCell id="mfmeViAMqzJZdrt2rNjp-5" value="" style="rounded=0;whiteSpace=wrap;html=1;rotation=-90;strokeColor=default;" vertex="1" parent="1">
          <mxGeometry x="104.53" y="119.85" width="70.31" height="59.99" as="geometry" />
        </mxCell>
        <mxCell id="mfmeViAMqzJZdrt2rNjp-6" value="&lt;font style=&quot;font-size: 6px;&quot; face=&quot;Times New Roman&quot;&gt;&lt;b&gt;D&lt;/b&gt;&lt;/font&gt;" style="text;html=1;align=center;verticalAlign=middle;resizable=0;points=[];autosize=1;strokeColor=none;fillColor=none;" vertex="1" parent="1">
          <mxGeometry x="100" y="110" width="30" height="30" as="geometry" />
        </mxCell>
        <mxCell id="mfmeViAMqzJZdrt2rNjp-7" value="&lt;font style=&quot;font-size: 6px;&quot; face=&quot;Times New Roman&quot;&gt;&lt;b&gt;Q&lt;/b&gt;&lt;/font&gt;" style="text;html=1;align=center;verticalAlign=middle;resizable=0;points=[];autosize=1;strokeColor=none;fillColor=none;" vertex="1" parent="1">
          <mxGeometry x="150" y="110" width="30" height="30" as="geometry" />
        </mxCell>
        <mxCell id="mfmeViAMqzJZdrt2rNjp-8" value="&lt;font style=&quot;font-size: 6px;&quot; face=&quot;Times New Roman&quot;&gt;&lt;b&gt;CLR&lt;/b&gt;&lt;/font&gt;" style="text;html=1;align=center;verticalAlign=middle;resizable=0;points=[];autosize=1;strokeColor=none;fillColor=none;" vertex="1" parent="1">
          <mxGeometry x="120" y="155" width="40" height="30" as="geometry" />
        </mxCell>
        <mxCell id="mfmeViAMqzJZdrt2rNjp-9" value="" style="triangle;whiteSpace=wrap;html=1;" vertex="1" parent="1">
          <mxGeometry x="110" y="170" width="10" height="10" as="geometry" />
        </mxCell>
        <mxCell id="mfmeViAMqzJZdrt2rNjp-17" value="" style="endArrow=none;html=1;rounded=0;" edge="1" parent="1">
          <mxGeometry width="50" height="50" relative="1" as="geometry">
            <mxPoint x="70" y="175" as="sourcePoint" />
            <mxPoint x="110" y="174.71" as="targetPoint" />
          </mxGeometry>
        </mxCell>
        <mxCell id="mfmeViAMqzJZdrt2rNjp-18" value="&lt;font style=&quot;font-size: 10px;&quot; face=&quot;Times New Roman&quot;&gt;&lt;b style=&quot;&quot;&gt;hit&lt;/b&gt;&lt;/font&gt;" style="text;html=1;align=center;verticalAlign=middle;resizable=0;points=[];autosize=1;strokeColor=none;fillColor=none;" vertex="1" parent="1">
          <mxGeometry x="60" y="150" width="40" height="30" as="geometry" />
        </mxCell>
        <mxCell id="mfmeViAMqzJZdrt2rNjp-19" value="" style="endArrow=none;html=1;rounded=0;" edge="1" parent="1">
          <mxGeometry width="50" height="50" relative="1" as="geometry">
            <mxPoint x="80" y="100" as="sourcePoint" />
            <mxPoint x="100" y="100" as="targetPoint" />
          </mxGeometry>
        </mxCell>
        <mxCell id="mfmeViAMqzJZdrt2rNjp-20" value="" style="endArrow=none;html=1;rounded=0;" edge="1" parent="1">
          <mxGeometry width="50" height="50" relative="1" as="geometry">
            <mxPoint x="90" y="139.71" as="sourcePoint" />
            <mxPoint x="110" y="139.71" as="targetPoint" />
          </mxGeometry>
        </mxCell>
        <mxCell id="mfmeViAMqzJZdrt2rNjp-21" value="" style="endArrow=none;html=1;rounded=0;" edge="1" parent="1">
          <mxGeometry width="50" height="50" relative="1" as="geometry">
            <mxPoint x="90" y="100" as="sourcePoint" />
            <mxPoint x="90" y="140" as="targetPoint" />
          </mxGeometry>
        </mxCell>
        <mxCell id="mfmeViAMqzJZdrt2rNjp-22" value="" style="endArrow=none;html=1;rounded=0;" edge="1" parent="1">
          <mxGeometry width="50" height="50" relative="1" as="geometry">
            <mxPoint x="170" y="140" as="sourcePoint" />
            <mxPoint x="200" y="139.71" as="targetPoint" />
          </mxGeometry>
        </mxCell>
        <mxCell id="mfmeViAMqzJZdrt2rNjp-24" value="" style="endArrow=none;html=1;rounded=0;" edge="1" parent="1">
          <mxGeometry width="50" height="50" relative="1" as="geometry">
            <mxPoint x="240" y="139.86" as="sourcePoint" />
            <mxPoint x="280" y="139.57" as="targetPoint" />
          </mxGeometry>
        </mxCell>
        <mxCell id="mfmeViAMqzJZdrt2rNjp-26" value="" style="endArrow=none;html=1;rounded=0;" edge="1" parent="1">
          <mxGeometry width="50" height="50" relative="1" as="geometry">
            <mxPoint x="440" y="140" as="sourcePoint" />
            <mxPoint x="480" y="140" as="targetPoint" />
          </mxGeometry>
        </mxCell>
        <mxCell id="mfmeViAMqzJZdrt2rNjp-27" value="" style="endArrow=none;html=1;rounded=0;" edge="1" parent="1">
          <mxGeometry width="50" height="50" relative="1" as="geometry">
            <mxPoint x="480" y="139.57" as="sourcePoint" />
            <mxPoint x="480" y="40" as="targetPoint" />
          </mxGeometry>
        </mxCell>
        <mxCell id="mfmeViAMqzJZdrt2rNjp-28" value="" style="endArrow=none;html=1;rounded=0;" edge="1" parent="1">
          <mxGeometry width="50" height="50" relative="1" as="geometry">
            <mxPoint x="480" y="40" as="sourcePoint" />
            <mxPoint x="40" y="40" as="targetPoint" />
            <Array as="points">
              <mxPoint x="260" y="40" />
            </Array>
          </mxGeometry>
        </mxCell>
        <mxCell id="mfmeViAMqzJZdrt2rNjp-29" value="" style="endArrow=none;html=1;rounded=0;" edge="1" parent="1">
          <mxGeometry width="50" height="50" relative="1" as="geometry">
            <mxPoint x="40" y="200" as="sourcePoint" />
            <mxPoint x="40" y="40" as="targetPoint" />
          </mxGeometry>
        </mxCell>
        <mxCell id="mfmeViAMqzJZdrt2rNjp-33" value="" style="endArrow=none;html=1;rounded=0;" edge="1" parent="1">
          <mxGeometry width="50" height="50" relative="1" as="geometry">
            <mxPoint x="40" y="200" as="sourcePoint" />
            <mxPoint x="140" y="200" as="targetPoint" />
          </mxGeometry>
        </mxCell>
        <mxCell id="mfmeViAMqzJZdrt2rNjp-34" value="" style="endArrow=none;html=1;rounded=0;" edge="1" parent="1" target="mfmeViAMqzJZdrt2rNjp-8">
          <mxGeometry width="50" height="50" relative="1" as="geometry">
            <mxPoint x="140" y="200" as="sourcePoint" />
            <mxPoint x="150" y="160" as="targetPoint" />
          </mxGeometry>
        </mxCell>
        <mxCell id="mfmeViAMqzJZdrt2rNjp-35" value="" style="endArrow=none;html=1;rounded=0;" edge="1" parent="1">
          <mxGeometry width="50" height="50" relative="1" as="geometry">
            <mxPoint x="320" y="140" as="sourcePoint" />
            <mxPoint x="340" y="140" as="targetPoint" />
          </mxGeometry>
        </mxCell>
        <mxCell id="mfmeViAMqzJZdrt2rNjp-36" value="" style="endArrow=none;dashed=1;html=1;rounded=0;entryX=0;entryY=0.5;entryDx=0;entryDy=0;" edge="1" parent="1" target="mfmeViAMqzJZdrt2rNjp-3">
          <mxGeometry width="50" height="50" relative="1" as="geometry">
            <mxPoint x="340" y="140" as="sourcePoint" />
            <mxPoint x="390" y="90" as="targetPoint" />
          </mxGeometry>
        </mxCell>
        <mxCell id="mfmeViAMqzJZdrt2rNjp-37" value="" style="endArrow=none;html=1;rounded=0;" edge="1" parent="1">
          <mxGeometry width="50" height="50" relative="1" as="geometry">
            <mxPoint x="250" y="140" as="sourcePoint" />
            <mxPoint x="250" y="200" as="targetPoint" />
          </mxGeometry>
        </mxCell>
        <mxCell id="mfmeViAMqzJZdrt2rNjp-38" value="" style="endArrow=none;html=1;rounded=0;" edge="1" parent="1">
          <mxGeometry width="50" height="50" relative="1" as="geometry">
            <mxPoint x="330" y="140" as="sourcePoint" />
            <mxPoint x="330" y="200" as="targetPoint" />
          </mxGeometry>
        </mxCell>
        <mxCell id="mfmeViAMqzJZdrt2rNjp-39" value="" style="endArrow=none;html=1;rounded=0;" edge="1" parent="1">
          <mxGeometry width="50" height="50" relative="1" as="geometry">
            <mxPoint x="450" y="140" as="sourcePoint" />
            <mxPoint x="450" y="200" as="targetPoint" />
          </mxGeometry>
        </mxCell>
        <mxCell id="mfmeViAMqzJZdrt2rNjp-40" value="" style="rounded=0;whiteSpace=wrap;html=1;rotation=0;strokeColor=default;" vertex="1" parent="1">
          <mxGeometry x="210" y="200" width="50" height="40" as="geometry" />
        </mxCell>
        <mxCell id="mfmeViAMqzJZdrt2rNjp-45" value="" style="rounded=0;whiteSpace=wrap;html=1;rotation=0;strokeColor=default;" vertex="1" parent="1">
          <mxGeometry x="290" y="200" width="50" height="40" as="geometry" />
        </mxCell>
        <mxCell id="mfmeViAMqzJZdrt2rNjp-46" value="" style="rounded=0;whiteSpace=wrap;html=1;rotation=0;strokeColor=default;" vertex="1" parent="1">
          <mxGeometry x="410" y="200" width="50" height="40" as="geometry" />
        </mxCell>
        <mxCell id="mfmeViAMqzJZdrt2rNjp-48" value="" style="rounded=0;whiteSpace=wrap;html=1;rotation=0;strokeColor=default;" vertex="1" parent="1">
          <mxGeometry x="210" y="260" width="50" height="40" as="geometry" />
        </mxCell>
        <mxCell id="mfmeViAMqzJZdrt2rNjp-49" value="" style="rounded=0;whiteSpace=wrap;html=1;rotation=0;strokeColor=default;" vertex="1" parent="1">
          <mxGeometry x="290" y="260" width="50" height="40" as="geometry" />
        </mxCell>
        <mxCell id="mfmeViAMqzJZdrt2rNjp-50" value="" style="rounded=0;whiteSpace=wrap;html=1;rotation=0;strokeColor=default;" vertex="1" parent="1">
          <mxGeometry x="410" y="260" width="50" height="40" as="geometry" />
        </mxCell>
        <mxCell id="mfmeViAMqzJZdrt2rNjp-51" value="" style="endArrow=none;dashed=1;html=1;rounded=0;" edge="1" parent="1">
          <mxGeometry width="50" height="50" relative="1" as="geometry">
            <mxPoint x="350" y="279.57" as="sourcePoint" />
            <mxPoint x="400" y="279.57" as="targetPoint" />
          </mxGeometry>
        </mxCell>
        <mxCell id="mfmeViAMqzJZdrt2rNjp-52" value="" style="endArrow=none;dashed=1;html=1;rounded=0;" edge="1" parent="1">
          <mxGeometry width="50" height="50" relative="1" as="geometry">
            <mxPoint x="350" y="219.57" as="sourcePoint" />
            <mxPoint x="400" y="219.57" as="targetPoint" />
          </mxGeometry>
        </mxCell>
        <mxCell id="mfmeViAMqzJZdrt2rNjp-61" value="" style="endArrow=none;html=1;rounded=0;exitX=0.75;exitY=1;exitDx=0;exitDy=0;entryX=0.75;entryY=0;entryDx=0;entryDy=0;" edge="1" parent="1">
          <mxGeometry width="50" height="50" relative="1" as="geometry">
            <mxPoint x="250.5" y="240" as="sourcePoint" />
            <mxPoint x="250.5" y="260" as="targetPoint" />
          </mxGeometry>
        </mxCell>
        <mxCell id="mfmeViAMqzJZdrt2rNjp-62" value="" style="endArrow=none;html=1;rounded=0;exitX=0.75;exitY=1;exitDx=0;exitDy=0;entryX=0.75;entryY=0;entryDx=0;entryDy=0;" edge="1" parent="1">
          <mxGeometry width="50" height="50" relative="1" as="geometry">
            <mxPoint x="330.5" y="240" as="sourcePoint" />
            <mxPoint x="330.5" y="260" as="targetPoint" />
          </mxGeometry>
        </mxCell>
        <mxCell id="mfmeViAMqzJZdrt2rNjp-63" value="" style="endArrow=none;html=1;rounded=0;exitX=0.75;exitY=1;exitDx=0;exitDy=0;entryX=0.75;entryY=0;entryDx=0;entryDy=0;" edge="1" parent="1">
          <mxGeometry width="50" height="50" relative="1" as="geometry">
            <mxPoint x="450.5" y="240" as="sourcePoint" />
            <mxPoint x="450.5" y="260" as="targetPoint" />
          </mxGeometry>
        </mxCell>
        <mxCell id="mfmeViAMqzJZdrt2rNjp-68" value="" style="endArrow=classic;html=1;rounded=0;" edge="1" parent="1">
          <mxGeometry width="50" height="50" relative="1" as="geometry">
            <mxPoint x="250" y="300" as="sourcePoint" />
            <mxPoint x="250" y="320" as="targetPoint" />
          </mxGeometry>
        </mxCell>
        <mxCell id="mfmeViAMqzJZdrt2rNjp-71" value="" style="endArrow=classic;html=1;rounded=0;" edge="1" parent="1">
          <mxGeometry width="50" height="50" relative="1" as="geometry">
            <mxPoint x="330" y="300" as="sourcePoint" />
            <mxPoint x="330" y="320" as="targetPoint" />
          </mxGeometry>
        </mxCell>
        <mxCell id="mfmeViAMqzJZdrt2rNjp-72" value="" style="endArrow=classic;html=1;rounded=0;" edge="1" parent="1">
          <mxGeometry width="50" height="50" relative="1" as="geometry">
            <mxPoint x="450" y="300" as="sourcePoint" />
            <mxPoint x="450" y="320" as="targetPoint" />
          </mxGeometry>
        </mxCell>
        <mxCell id="mfmeViAMqzJZdrt2rNjp-73" value="&lt;font style=&quot;font-size: 6px;&quot; face=&quot;Times New Roman&quot;&gt;&lt;b&gt;D&lt;/b&gt;&lt;/font&gt;" style="text;html=1;align=center;verticalAlign=middle;resizable=0;points=[];autosize=1;strokeColor=none;fillColor=none;" vertex="1" parent="1">
          <mxGeometry x="240" y="190" width="30" height="30" as="geometry" />
        </mxCell>
        <mxCell id="mfmeViAMqzJZdrt2rNjp-74" value="&lt;font style=&quot;font-size: 6px;&quot; face=&quot;Times New Roman&quot;&gt;&lt;b&gt;Q&lt;/b&gt;&lt;/font&gt;" style="text;html=1;align=center;verticalAlign=middle;resizable=0;points=[];autosize=1;strokeColor=none;fillColor=none;" vertex="1" parent="1">
          <mxGeometry x="240" y="210" width="30" height="30" as="geometry" />
        </mxCell>
        <mxCell id="mfmeViAMqzJZdrt2rNjp-75" value="&lt;font style=&quot;font-size: 6px;&quot; face=&quot;Times New Roman&quot;&gt;&lt;b&gt;Q&lt;/b&gt;&lt;/font&gt;" style="text;html=1;align=center;verticalAlign=middle;resizable=0;points=[];autosize=1;strokeColor=none;fillColor=none;" vertex="1" parent="1">
          <mxGeometry x="240" y="270" width="30" height="30" as="geometry" />
        </mxCell>
        <mxCell id="mfmeViAMqzJZdrt2rNjp-76" value="&lt;font style=&quot;font-size: 6px;&quot; face=&quot;Times New Roman&quot;&gt;&lt;b&gt;D&lt;/b&gt;&lt;/font&gt;" style="text;html=1;align=center;verticalAlign=middle;resizable=0;points=[];autosize=1;strokeColor=none;fillColor=none;" vertex="1" parent="1">
          <mxGeometry x="240" y="250" width="30" height="30" as="geometry" />
        </mxCell>
        <mxCell id="mfmeViAMqzJZdrt2rNjp-77" value="&lt;font style=&quot;font-size: 6px;&quot; face=&quot;Times New Roman&quot;&gt;&lt;b&gt;D&lt;/b&gt;&lt;/font&gt;" style="text;html=1;align=center;verticalAlign=middle;resizable=0;points=[];autosize=1;strokeColor=none;fillColor=none;" vertex="1" parent="1">
          <mxGeometry x="320" y="190" width="30" height="30" as="geometry" />
        </mxCell>
        <mxCell id="mfmeViAMqzJZdrt2rNjp-78" value="&lt;font style=&quot;font-size: 6px;&quot; face=&quot;Times New Roman&quot;&gt;&lt;b&gt;Q&lt;/b&gt;&lt;/font&gt;" style="text;html=1;align=center;verticalAlign=middle;resizable=0;points=[];autosize=1;strokeColor=none;fillColor=none;" vertex="1" parent="1">
          <mxGeometry x="320" y="210" width="30" height="30" as="geometry" />
        </mxCell>
        <mxCell id="mfmeViAMqzJZdrt2rNjp-79" value="&lt;font style=&quot;font-size: 6px;&quot; face=&quot;Times New Roman&quot;&gt;&lt;b&gt;Q&lt;/b&gt;&lt;/font&gt;" style="text;html=1;align=center;verticalAlign=middle;resizable=0;points=[];autosize=1;strokeColor=none;fillColor=none;" vertex="1" parent="1">
          <mxGeometry x="320" y="270" width="30" height="30" as="geometry" />
        </mxCell>
        <mxCell id="mfmeViAMqzJZdrt2rNjp-80" value="&lt;font style=&quot;font-size: 6px;&quot; face=&quot;Times New Roman&quot;&gt;&lt;b&gt;D&lt;/b&gt;&lt;/font&gt;" style="text;html=1;align=center;verticalAlign=middle;resizable=0;points=[];autosize=1;strokeColor=none;fillColor=none;" vertex="1" parent="1">
          <mxGeometry x="320" y="250" width="30" height="30" as="geometry" />
        </mxCell>
        <mxCell id="mfmeViAMqzJZdrt2rNjp-81" value="&lt;font style=&quot;font-size: 6px;&quot; face=&quot;Times New Roman&quot;&gt;&lt;b&gt;D&lt;/b&gt;&lt;/font&gt;" style="text;html=1;align=center;verticalAlign=middle;resizable=0;points=[];autosize=1;strokeColor=none;fillColor=none;" vertex="1" parent="1">
          <mxGeometry x="440" y="190" width="30" height="30" as="geometry" />
        </mxCell>
        <mxCell id="mfmeViAMqzJZdrt2rNjp-82" value="&lt;font style=&quot;font-size: 6px;&quot; face=&quot;Times New Roman&quot;&gt;&lt;b&gt;Q&lt;/b&gt;&lt;/font&gt;" style="text;html=1;align=center;verticalAlign=middle;resizable=0;points=[];autosize=1;strokeColor=none;fillColor=none;" vertex="1" parent="1">
          <mxGeometry x="440" y="210" width="30" height="30" as="geometry" />
        </mxCell>
        <mxCell id="mfmeViAMqzJZdrt2rNjp-83" value="&lt;font style=&quot;font-size: 6px;&quot; face=&quot;Times New Roman&quot;&gt;&lt;b&gt;Q&lt;/b&gt;&lt;/font&gt;" style="text;html=1;align=center;verticalAlign=middle;resizable=0;points=[];autosize=1;strokeColor=none;fillColor=none;" vertex="1" parent="1">
          <mxGeometry x="440" y="270" width="30" height="30" as="geometry" />
        </mxCell>
        <mxCell id="mfmeViAMqzJZdrt2rNjp-84" value="&lt;font style=&quot;font-size: 6px;&quot; face=&quot;Times New Roman&quot;&gt;&lt;b&gt;D&lt;/b&gt;&lt;/font&gt;" style="text;html=1;align=center;verticalAlign=middle;resizable=0;points=[];autosize=1;strokeColor=none;fillColor=none;" vertex="1" parent="1">
          <mxGeometry x="440" y="250" width="30" height="30" as="geometry" />
        </mxCell>
        <mxCell id="mfmeViAMqzJZdrt2rNjp-85" value="" style="triangle;whiteSpace=wrap;html=1;rotation=90;" vertex="1" parent="1">
          <mxGeometry x="215" y="200" width="10" height="10" as="geometry" />
        </mxCell>
        <mxCell id="mfmeViAMqzJZdrt2rNjp-87" value="" style="triangle;whiteSpace=wrap;html=1;rotation=90;" vertex="1" parent="1">
          <mxGeometry x="215" y="260" width="10" height="10" as="geometry" />
        </mxCell>
        <mxCell id="mfmeViAMqzJZdrt2rNjp-88" value="" style="triangle;whiteSpace=wrap;html=1;rotation=90;" vertex="1" parent="1">
          <mxGeometry x="295" y="200" width="10" height="10" as="geometry" />
        </mxCell>
        <mxCell id="mfmeViAMqzJZdrt2rNjp-90" value="" style="triangle;whiteSpace=wrap;html=1;rotation=90;" vertex="1" parent="1">
          <mxGeometry x="295" y="260" width="10" height="10" as="geometry" />
        </mxCell>
        <mxCell id="mfmeViAMqzJZdrt2rNjp-91" value="" style="triangle;whiteSpace=wrap;html=1;rotation=90;" vertex="1" parent="1">
          <mxGeometry x="415" y="200" width="10" height="10" as="geometry" />
        </mxCell>
        <mxCell id="mfmeViAMqzJZdrt2rNjp-92" value="" style="triangle;whiteSpace=wrap;html=1;rotation=90;" vertex="1" parent="1">
          <mxGeometry x="415" y="260" width="10" height="10" as="geometry" />
        </mxCell>
        <mxCell id="mfmeViAMqzJZdrt2rNjp-93" value="&lt;font style=&quot;font-size: 10px;&quot; face=&quot;Times New Roman&quot;&gt;&lt;b style=&quot;&quot;&gt;clk&lt;/b&gt;&lt;/font&gt;" style="text;html=1;align=center;verticalAlign=middle;resizable=0;points=[];autosize=1;strokeColor=none;fillColor=none;" vertex="1" parent="1">
          <mxGeometry x="180" y="180" width="40" height="30" as="geometry" />
        </mxCell>
        <mxCell id="mfmeViAMqzJZdrt2rNjp-94" value="&lt;font style=&quot;font-size: 10px;&quot; face=&quot;Times New Roman&quot;&gt;&lt;b style=&quot;&quot;&gt;clk&lt;/b&gt;&lt;/font&gt;" style="text;html=1;align=center;verticalAlign=middle;resizable=0;points=[];autosize=1;strokeColor=none;fillColor=none;" vertex="1" parent="1">
          <mxGeometry x="180" y="240" width="40" height="30" as="geometry" />
        </mxCell>
        <mxCell id="mfmeViAMqzJZdrt2rNjp-95" value="&lt;font style=&quot;font-size: 10px;&quot; face=&quot;Times New Roman&quot;&gt;&lt;b style=&quot;&quot;&gt;clk&lt;/b&gt;&lt;/font&gt;" style="text;html=1;align=center;verticalAlign=middle;resizable=0;points=[];autosize=1;strokeColor=none;fillColor=none;" vertex="1" parent="1">
          <mxGeometry x="260" y="179.84" width="40" height="30" as="geometry" />
        </mxCell>
        <mxCell id="mfmeViAMqzJZdrt2rNjp-96" value="&lt;font style=&quot;font-size: 10px;&quot; face=&quot;Times New Roman&quot;&gt;&lt;b style=&quot;&quot;&gt;clk&lt;/b&gt;&lt;/font&gt;" style="text;html=1;align=center;verticalAlign=middle;resizable=0;points=[];autosize=1;strokeColor=none;fillColor=none;" vertex="1" parent="1">
          <mxGeometry x="260" y="240" width="40" height="30" as="geometry" />
        </mxCell>
        <mxCell id="mfmeViAMqzJZdrt2rNjp-97" value="&lt;font style=&quot;font-size: 10px;&quot; face=&quot;Times New Roman&quot;&gt;&lt;b style=&quot;&quot;&gt;clk&lt;/b&gt;&lt;/font&gt;" style="text;html=1;align=center;verticalAlign=middle;resizable=0;points=[];autosize=1;strokeColor=none;fillColor=none;" vertex="1" parent="1">
          <mxGeometry x="380" y="180" width="40" height="30" as="geometry" />
        </mxCell>
        <mxCell id="mfmeViAMqzJZdrt2rNjp-98" value="&lt;font style=&quot;font-size: 10px;&quot; face=&quot;Times New Roman&quot;&gt;&lt;b style=&quot;&quot;&gt;clk&lt;/b&gt;&lt;/font&gt;" style="text;html=1;align=center;verticalAlign=middle;resizable=0;points=[];autosize=1;strokeColor=none;fillColor=none;" vertex="1" parent="1">
          <mxGeometry x="380" y="240" width="40" height="30" as="geometry" />
        </mxCell>
      </root>
    </mxGraphModel>
  </diagram>
</mxfile>
